<?xml version="1.0" encoding="UTF-8" standalone="no"?>
<!-- Created with Inkscape (http://www.inkscape.org/) -->

<svg
   xmlns:dc="http://purl.org/dc/elements/1.1/"
   xmlns:cc="http://creativecommons.org/ns#"
   xmlns:rdf="http://www.w3.org/1999/02/22-rdf-syntax-ns#"
   xmlns:svg="http://www.w3.org/2000/svg"
   xmlns="http://www.w3.org/2000/svg"
   version="1.1"
   width="524.51538"
   height="203.06488"
   id="svg3023"
   xml:space="preserve"><metadata
     id="metadata3029"><rdf:RDF><cc:Work
         rdf:about=""><dc:format>image/svg+xml</dc:format><dc:type
           rdf:resource="http://purl.org/dc/dcmitype/StillImage" /><dc:title></dc:title></cc:Work></rdf:RDF></metadata><defs
     id="defs3027"><linearGradient
       x1="0"
       y1="0"
       x2="1"
       y2="0"
       id="linearGradient3045"
       gradientUnits="userSpaceOnUse"
       gradientTransform="matrix(-18.389755,-86.497055,-86.504318,-0.0341187,320.30176,504.56055)"
       spreadMethod="pad"><stop
         id="stop3047"
         style="stop-color:#f9a033;stop-opacity:1"
         offset="0" /><stop
         id="stop3049"
         style="stop-color:#fff215;stop-opacity:1"
         offset="0.63735998" /><stop
         id="stop3051"
         style="stop-color:#fff215;stop-opacity:1"
         offset="1" /></linearGradient><clipPath
       id="clipPath3079"><path
         d="M 0,792 612,792 612,0 0,0 0,792 z"
         id="path3081" /></clipPath><linearGradient
       x1="0"
       y1="0"
       x2="1"
       y2="0"
       id="linearGradient3195"
       gradientUnits="userSpaceOnUse"
       gradientTransform="matrix(0,-53.219238,-53.219238,0,219.63525,432.98828)"
       spreadMethod="pad"><stop
         id="stop3197"
         style="stop-color:#ee3c3a;stop-opacity:1"
         offset="0" /><stop
         id="stop3199"
         style="stop-color:#9d2b2d;stop-opacity:1"
         offset="1" /></linearGradient><linearGradient
       x1="0"
       y1="0"
       x2="1"
       y2="0"
       id="linearGradient3215"
       gradientUnits="userSpaceOnUse"
       gradientTransform="matrix(0,-53.219238,-53.219238,0,415.86523,432.98828)"
       spreadMethod="pad"><stop
         id="stop3217"
         style="stop-color:#69cef6;stop-opacity:1"
         offset="0" /><stop
         id="stop3219"
         style="stop-color:#317abe;stop-opacity:1"
         offset="1" /></linearGradient><clipPath
       id="clipPath3227"><path
         d="M 0,792 612,792 612,0 0,0 0,792 z"
         id="path3229" /></clipPath><linearGradient
       x1="0"
       y1="0"
       x2="1"
       y2="0"
       id="linearGradient3247"
       gradientUnits="userSpaceOnUse"
       gradientTransform="matrix(0,-50.251465,-50.251465,0,438.13184,433.13281)"
       spreadMethod="pad"><stop
         id="stop3249"
         style="stop-color:#69cef6;stop-opacity:1"
         offset="0" /><stop
         id="stop3251"
         style="stop-color:#317abe;stop-opacity:1"
         offset="1" /></linearGradient><clipPath
       id="clipPath3259"><path
         d="M 0,792 612,792 612,0 0,0 0,792 z"
         id="path3261" /></clipPath></defs><g
     transform="matrix(1.25,0,0,-1.25,-118.73338,630.60625)"
     id="g3031"><g
       id="g3033"><g
         id="g3035"><g
           id="g3041"><g
             id="g3043"><path
               d="m 428.792,424.06 71.381,18.887 0.639,2.719 0.402,1.714 -72.422,-23.32 z m -21.854,4.986 98.165,34.932 2.115,9.023 -100.28,-43.955 z m 14.919,-3.213 79.762,23.281 1.304,5.568 -81.066,-28.849 z m -216.386,3.213 -81.947,45.211 90.536,-43.785 -73.131,46.515 81.955,-45.211 -64.114,47.688 73.113,-46.514 -54.898,48.737 64.103,-47.694 -45.573,49.653 54.909,-48.741 -36.098,50.43 45.561,-49.648 -26.517,51.06 36.081,-50.43 -16.869,51.567 26.513,-51.069 -7.177,51.922 16.853,-51.56 2.538,52.135 7.164,-51.924 12.238,52.209 -2.534,-52.134 21.904,52.134 -12.238,-52.209 31.504,51.924 -21.909,-52.135 41.044,51.56 -31.527,-51.922 50.456,51.069 -41.043,-51.567 59.711,50.43 -50.454,-51.06 68.832,49.648 -59.722,-50.43 77.746,48.741 -68.841,-49.653 86.46,47.694 -77.747,-48.737 94.921,46.514 -86.453,-47.688 103.135,45.211 -94.939,-46.515 108.233,42.666 7.349,31.347 -387.08,0 -8.983,-38.313 86.935,-37.126 z m 229.906,-6.865 63.497,15.221 0.831,3.552 -64.328,-18.773 z m 12.005,-4.059 49.228,9.623 0.539,2.305 -49.767,-11.928 z m -5.803,2.072 56.113,12.17 0.669,2.858 -56.782,-15.028 z m -27.016,7.303 88.683,28.56 0.028,0.12 1.626,6.931 -90.337,-35.611 z m -296.168,38.066 -1.768,-7.533 80.498,-30.533 -78.73,38.066 z m 70.659,-39.73 -72.695,31.047 -1.226,-5.229 -0.18,-0.761 74.101,-25.057 z m -22.367,-5.639 -55.034,16.623 -0.739,-3.158 55.773,-13.465 z m 14.586,3.866 -66.681,25.293 -0.256,-1.099 -0.87,-3.71 67.807,-20.484 z m -7.47,-1.879 -60.762,20.547 -0.913,-3.891 61.675,-16.656 z"
               id="path3053"
               style="fill:url(#linearGradient3045);stroke:none" /></g></g></g></g><g
       transform="translate(200.8389,364.6709)"
       id="g3055"><path
         d="m 0,0 -5.806,-22.294 -6.843,0 2.257,8.672 -5.225,0 -2.258,-8.672 -6.844,0 5.806,22.294 6.843,0 -2.135,-8.199 5.226,0 L -6.843,0 0,0 z"
         id="path3057"
         style="fill:#2a2523;fill-opacity:1;fill-rule:nonzero;stroke:none" /></g><g
       transform="translate(217.0635,347.6992)"
       id="g3059"><path
         d="m 0,0 -1.386,-5.322 -16.773,0 5.805,22.294 16.774,0 -1.341,-5.145 -10.06,0 -0.842,-3.235 8.134,0 -1.289,-4.949 -8.134,0 L -10.061,0 0,0 z"
         id="path3061"
         style="fill:#2a2523;fill-opacity:1;fill-rule:nonzero;stroke:none" /></g><g
       transform="translate(227.0254,351.6367)"
       id="g3063"><path
         d="M 0,0 3.606,0 3.486,6.468 0,0 z m 3.657,-9.26 -0.116,4.393 -5.973,0 -2.482,-4.393 -5.556,0 12.689,22.294 7.234,0 1.188,-22.294 -6.984,0 z"
         id="path3065"
         style="fill:#2a2523;fill-opacity:1;fill-rule:nonzero;stroke:none" /></g><g
       transform="translate(252.0234,359.3301)"
       id="g3067"><path
         d="m 0,0 -4.416,-16.953 -6.482,0 4.414,16.953 -4.622,0 1.39,5.341 15.728,0 L 4.622,0 0,0 z"
         id="path3069"
         style="fill:#2a2523;fill-opacity:1;fill-rule:nonzero;stroke:none" /></g><g
       transform="translate(266.8232,364.6709)"
       id="g3071"><path
         d="m 0,0 -5.806,-22.294 -6.843,0 L -6.844,0 0,0 z"
         id="path3073"
         style="fill:#2a2523;fill-opacity:1;fill-rule:nonzero;stroke:none" /></g><g
       id="g3075"><g
         clip-path="url(#clipPath3079)"
         id="g3077"><g
           transform="translate(283.9658,342.377)"
           id="g3083"><path
             d="m 0,0 -5.569,0 -3.543,9.85 c -0.454,1.263 -0.845,2.798 -1.17,4.604 -0.016,-1.437 -0.154,-2.656 -0.414,-3.658 L -13.508,0 l -5.554,0 5.807,22.294 6.467,0 3.068,-8.166 c 0.612,-1.622 1.024,-3.05 1.237,-4.28 0.148,1.906 0.48,3.854 1.001,5.849 l 1.717,6.597 5.571,0 L 0,0 z"
             id="path3085"
             style="fill:#2a2523;fill-opacity:1;fill-rule:nonzero;stroke:none" /></g><g
           transform="translate(310.3623,354.8711)"
           id="g3087"><path
             d="m 0,0 -3.254,-12.494 -3.35,0 c -0.03,0.924 -0.125,1.703 -0.29,2.334 -1.847,-1.783 -4.127,-2.678 -6.837,-2.678 -2.875,0 -4.977,1.006 -6.303,3.014 -1.328,2.01 -1.547,4.728 -0.654,8.159 0.869,3.332 2.494,6.132 4.876,8.401 2.382,2.272 5.343,3.407 8.881,3.407 2.658,0 4.62,-0.676 5.892,-2.026 1.27,-1.35 1.822,-3.265 1.655,-5.749 l -6.8,-0.653 c 0.277,2.32 -0.44,3.479 -2.149,3.479 -2.244,0 -3.92,-2.134 -5.032,-6.402 -0.673,-2.581 -0.755,-4.284 -0.251,-5.105 0.504,-0.822 1.268,-1.234 2.292,-1.234 0.827,0 1.597,0.252 2.311,0.752 0.713,0.502 1.188,1.188 1.424,2.059 l -3.69,0 L -10.046,0 0,0 z"
             id="path3089"
             style="fill:#2a2523;fill-opacity:1;fill-rule:nonzero;stroke:none" /></g><g
           transform="translate(324.9658,355.6035)"
           id="g3091"><path
             d="M 0,0 2.327,0 2.25,4.175 0,0 z m 2.359,-5.979 -0.074,2.837 -3.854,0 -1.605,-2.837 -3.584,0 8.19,14.392 4.672,0 0.764,-14.392 -4.509,0 z"
             id="path3093"
             style="fill:#2a2523;fill-opacity:1;fill-rule:nonzero;stroke:none" /></g><g
           transform="translate(345.4639,349.625)"
           id="g3095"><path
             d="M 0,0 -3.596,0 -5.881,6.358 C -6.176,7.174 -6.427,8.165 -6.638,9.332 -6.647,8.403 -6.736,7.616 -6.904,6.97 L -8.719,0 l -3.585,0 3.748,14.392 4.175,0 1.981,-5.271 c 0.395,-1.048 0.661,-1.969 0.797,-2.764 0.095,1.232 0.31,2.489 0.646,3.775 l 1.109,4.26 3.596,0 L 0,0 z"
             id="path3097"
             style="fill:#2a2523;fill-opacity:1;fill-rule:nonzero;stroke:none" /></g><g
           transform="translate(353.2529,352.9355)"
           id="g3099"><path
             d="m 0,0 1.149,0 c 0.731,0 1.44,0.355 2.126,1.064 0.688,0.71 1.191,1.677 1.51,2.9 0.272,1.048 0.284,1.95 0.036,2.711 C 4.572,7.434 4.027,7.813 3.183,7.813 l -1.15,0 L 0,0 z m -5.279,-3.311 3.747,14.392 5.566,0 c 2.417,0 4.042,-0.717 4.869,-2.15 C 9.732,7.496 9.899,5.837 9.41,3.953 8.85,1.805 7.75,0.055 6.109,-1.293 4.47,-2.639 2.62,-3.311 0.56,-3.311 l -5.839,0 z"
             id="path3101"
             style="fill:#2a2523;fill-opacity:1;fill-rule:nonzero;stroke:none" /></g><g
           transform="translate(375.3252,351.6367)"
           id="g3103"><path
             d="M 0,0 3.607,0 3.486,6.468 0,0 z m 3.657,-9.26 -0.115,4.393 -5.973,0 -2.484,-4.393 -5.556,0 12.69,22.294 7.235,0 1.185,-22.294 -6.982,0 z"
             id="path3105"
             style="fill:#2a2523;fill-opacity:1;fill-rule:nonzero;stroke:none" /></g><g
           transform="translate(400.668,364.6709)"
           id="g3107"><path
             d="m 0,0 -5.805,-22.294 -6.844,0 L -6.843,0 0,0 z"
             id="path3109"
             style="fill:#2a2523;fill-opacity:1;fill-rule:nonzero;stroke:none" /></g><g
           transform="translate(409.0566,355.6719)"
           id="g3111"><path
             d="M 0,0 2.923,0 C 3.783,0 4.521,0.18 5.138,0.539 5.754,0.898 6.152,1.426 6.334,2.124 6.705,3.549 6.015,4.262 4.263,4.262 l -3.155,0 L 0,0 z m 9.537,-13.295 -7.585,0 -1.038,8.524 -2.156,0 -2.223,-8.524 -6.842,0 5.807,22.294 11.645,0 c 2.569,0 4.409,-0.602 5.516,-1.805 1.107,-1.204 1.404,-2.79 0.891,-4.76 C 13.218,1.148 12.661,0.013 11.881,-0.972 11.102,-1.957 9.819,-2.825 8.034,-3.578 l 1.503,-9.717 z"
             id="path3113"
             style="fill:#2a2523;fill-opacity:1;fill-rule:nonzero;stroke:none" /></g><g
           transform="translate(357.498,342.4512)"
           id="g3115"><path
             d="m 0,0 -41.924,0 1.422,4.121 41.993,0 L 0,0 z"
             id="path3117"
             style="fill:#2a2523;fill-opacity:1;fill-rule:nonzero;stroke:none" /></g><g
           transform="translate(427.8125,356.2432)"
           id="g3119"><path
             d="M 0,0 -1.72,-6.772 50.74,0 0,0 z"
             id="path3121"
             style="fill:#2a2523;fill-opacity:1;fill-rule:nonzero;stroke:none" /></g><g
           transform="translate(172.7021,356.2432)"
           id="g3123"><path
             d="M 0,0 -1.903,-6.772 -54.364,0 0,0 z"
             id="path3125"
             style="fill:#2a2523;fill-opacity:1;fill-rule:nonzero;stroke:none" /></g><g
           transform="translate(351.3447,393.5488)"
           id="g3127"><path
             d="M 0,0 1.184,5.317 6.999,1.744 6.845,1.047 6.786,0.783 6.613,0 0,0 z m -80.856,-1.299 0.647,2.908 3.411,0 0.227,-2.908 -4.285,0 z M 34.241,43.129 -8.546,43.048 C -8.874,41.53 -9.575,38.29 -9.708,37.682 l -0.171,-0.787 -42.511,0 -0.015,-0.066 -35.78,0.066 -4.849,0.006 0,-0.006 -34.464,0 0.002,0.01 -35.035,-0.068 0.012,0.058 -41.283,0 -0.288,0.496 c -0.245,0.419 -0.499,0.798 -0.75,1.135 -1.598,2.095 -4.489,4.579 -9.909,4.594 l -31.918,0 -3.885,-17.46 3.786,0 -9.592,-43.118 29.771,0 c 3.836,0.004 7.608,1.169 9.705,2.8 0,0 3.184,2.019 4.912,5.235 1.74,3.238 2.75,7.375 2.75,7.375 l -3.269,-15.41 132.322,0 3.594,16.136 1.253,-16.136 17.344,0 -1.718,23.164 c -0.055,0.666 -0.187,1.432 -0.461,2.249 l -0.215,0.646 0.522,0.436 c 2.169,1.817 3.017,4.041 3.352,5.546 l 0.285,1.282 13.169,0 -3.79,-17.049 -3.991,0.003 -3.617,-16.277 25.138,0 3.619,16.274 -3.989,0 3.792,17.049 13.898,0 0.286,-0.518 c 1.129,-2.044 2.933,-3.893 5.428,-5.451 l 7.452,-4.579 -17.64,0 -5.066,-22.775 42.688,0 4.512,20.286 c 0.261,1.188 0.389,2.322 0.389,3.398 -0.005,3.135 -1.056,5.79 -3.122,7.946 l -0.096,0.1 -0.053,0.054 c -0.731,0.731 -1.586,1.402 -2.567,2.005 l -10e-4,0 -6.743,4.147 12.252,0 -1.023,-4.613 14.018,0 -3.79,-17.049 -3.99,0.003 -3.622,-16.277 25.14,0 3.624,16.274 -3.992,0 3.794,17.049 14.138,0 4.678,21.03 -41.857,0"
             id="path3129"
             style="fill:#2a2523;fill-opacity:1;fill-rule:nonzero;stroke:none" /></g><g
           transform="translate(478.4727,376.4668)"
           id="g3131"><path
             d="m 0,0 16.598,0 -1.689,22.756 c -0.053,0.64 -0.18,1.381 -0.444,2.162 l -0.297,0.889 0.198,0.164 0.52,0.436 c 2.089,1.751 2.903,3.887 3.229,5.338 l 4.846,21.792 -40.786,0.07 -3.464,-15.592 3.576,0 L -26.167,0 l 20.678,0 3.427,15.41 -3.817,0 -0.47,0 0.815,3.656 4.056,0 0.285,-3.656 -0.009,0 L 0,0 z"
             id="path3133"
             style="fill:#2a2523;fill-opacity:1;fill-rule:nonzero;stroke:none" /></g><g
           transform="translate(232.7344,391.9912)"
           id="g3135"><path
             d="m 0,0 0,0 -0.469,0 0.789,3.542 7.02,0 L 6.97,1.869 6.793,1.079 6.555,0 0,0 z"
             id="path3137"
             style="fill:#ffffff;fill-opacity:1;fill-rule:nonzero;stroke:none" /></g><g
           transform="translate(193.0771,391.9912)"
           id="g3139"><path
             d="M 0,0 1.012,4.552 4.277,2.549 6.485,1.196 6.235,0.009 0,0 z"
             id="path3141"
             style="fill:#ffffff;fill-opacity:1;fill-rule:nonzero;stroke:none" /></g><g
           transform="translate(159.6338,391.9912)"
           id="g3143"><path
             d="m 0,0 0,0 -0.467,0 0.789,3.542 5.018,0 L 4.97,1.869 4.795,1.079 4.557,0 0,0 z"
             id="path3145"
             style="fill:#ffffff;fill-opacity:1;fill-rule:nonzero;stroke:none" /></g><g
           transform="translate(117.3071,393.1758)"
           id="g3147"><path
             d="m 0,0 0,0 -0.467,0 5.873,26.409 7.512,0 L 7.285,1.076 7.045,0 0,0 z"
             id="path3149"
             style="fill:#ffffff;fill-opacity:1;fill-rule:nonzero;stroke:none" /></g><g
           transform="translate(216.3506,401.4141)"
           id="g3151"><path
             d="m 0,0 c -0.238,1.492 -2.211,3.614 -4.427,4.979 l -0.001,-0.002 -7.051,3.576 15,0 L 0.369,-5.613 0,0 z"
             id="path3153"
             style="fill:#ffffff;fill-opacity:1;fill-rule:nonzero;stroke:none" /></g><g
           transform="translate(172.3643,396.6743)"
           id="g3155"><path
             d="m 0,0 2.648,12.236 6.391,0 0.071,-0.284 0.192,-0.754 C 10.007,8.422 11.887,5.955 15.08,3.955 L 17.351,2.558 21.498,0.013 0.465,0 0,0 z"
             id="path3157"
             style="fill:#ffffff;fill-opacity:1;fill-rule:nonzero;stroke:none" /></g><g
           transform="translate(245.9282,396.9795)"
           id="g3159"><path
             d="m 0,0 0,0 -0.467,0 2.654,11.931 9.302,0 L 9.075,1.078 8.836,0 0,0 z"
             id="path3161"
             style="fill:#ffffff;fill-opacity:1;fill-rule:nonzero;stroke:none" /></g><g
           transform="translate(274.5874,410.2954)"
           id="g3163"><path
             d="m 0,0 0,0 -0.468,0 0.931,4.187 4.433,0 L 4.208,1.078 3.965,0 0,0 z"
             id="path3165"
             style="fill:#ffffff;fill-opacity:1;fill-rule:nonzero;stroke:none" /></g><g
           transform="translate(236.8052,410.2954)"
           id="g3167"><path
             d="m 0,0 0,0 -0.467,0 0.943,4.246 5.018,0 L 4.793,1.078 4.553,0 0,0 z"
             id="path3169"
             style="fill:#ffffff;fill-opacity:1;fill-rule:nonzero;stroke:none" /></g><g
           transform="translate(163.7065,410.2954)"
           id="g3171"><path
             d="m 0,0 0,0 -0.469,0 0.945,4.246 5.016,0 L 4.793,1.078 4.553,0 0,0 z"
             id="path3173"
             style="fill:#ffffff;fill-opacity:1;fill-rule:nonzero;stroke:none" /></g><g
           transform="translate(476.6914,410.2974)"
           id="g3175"><path
             d="m 0,0 0,0 -0.467,0 0.928,4.185 4.432,0 L 4.208,1.076 3.966,0 0,0 z"
             id="path3177"
             style="fill:#ffffff;fill-opacity:1;fill-rule:nonzero;stroke:none" /></g><g
           transform="translate(356.7246,419.5845)"
           id="g3179"><path
             d="M 0,0 7.805,0 7.085,-3.235 6.664,-5.121 -0.119,-0.88 0,0 z"
             id="path3181"
             style="fill:#ffffff;fill-opacity:1;fill-rule:nonzero;stroke:none" /></g></g></g><g
       id="g3183"><g
         id="g3185"><g
           id="g3191"><g
             id="g3193"><path
               d="m 107.629,432.988 -2.247,-10.1 3.786,0 -9.591,-43.119 25.181,0 c 2.974,0 5.732,1.042 8.275,3.123 l 0,0 c 2.541,2.083 4.112,4.473 4.713,7.176 l 0,0 7.123,32.024 c 0.69,3.099 0.253,5.692 -1.308,7.773 l 0,0 c -1.563,2.081 -3.884,3.123 -6.965,3.123 l 0,0 -28.967,0 z m 12.435,-10.1 14.285,0 -7.344,-33.019 -14.285,0 7.344,33.019 z m 181.848,3.875 -3.041,-13.67 8.918,0 1.058,4.753 5.105,0 -6.487,-29.159 -3.99,0 -1.983,-8.918 17.601,0 1.983,8.918 -3.99,0 6.486,29.159 5.222,0 -1.058,-4.753 8.917,0 3.041,13.67 -37.782,0 z m -42.711,-8.977 3.578,0 -8.457,-38.017 13.905,0 1.958,8.801 -4.283,0 2.284,10.267 9.769,0 1.476,-19.068 9.975,0 -1.424,19.185 c -0.147,1.799 -1.054,3.344 -2.723,4.635 l 0,0 c 3.389,0.821 5.39,2.602 5.999,5.339 l 0,0 3.953,17.776 -34.014,0.059 -1.996,-8.977 z m 13.199,0 11.207,0 -2.402,-10.795 -11.205,0 2.4,10.795 z m -48.75,8.977 -1.983,-8.917 3.345,0 -8.47,-38.077 32.533,0 3.094,13.904 -9.12,0 -1.109,-4.986 -13.794,0 2.258,10.15 12.087,0 1.814,8.154 -12.086,0 2.414,10.855 11.791,0 -1.252,-5.632 8.918,0 3.236,14.549 -33.676,0 z m -35.565,-0.059 c -1.415,-6.54 -2.474,-11.296 -3.175,-14.274 l 0,0 c -0.858,-3.68 0.563,-6.676 4.265,-8.986 l 0,0 13.671,-8.402 0.008,-0.057 -1.401,-6.298 -12.496,0 1.045,4.694 -8.918,0 -3.027,-13.612 32.034,0 3.42,15.372 c 0.835,3.753 -0.279,6.569 -3.343,8.448 l 0,0 -15.605,8.975 1.173,5.282 12.555,0 -1.017,-4.577 8.918,0 3,13.494 -31.107,-0.059 z m -37.533,0.059 -1.984,-8.917 3.344,0 -8.468,-38.077 30.331,0 3.092,13.904 -8.918,0 -1.109,-4.986 -11.792,0 2.257,10.15 12.086,0 1.814,8.154 -12.086,0 2.414,10.855 11.793,0 -1.254,-5.632 8.918,0 3.237,14.549 -33.675,0 z"
               id="path3201"
               style="fill:url(#linearGradient3195);stroke:none" /></g></g></g></g><g
       id="g3203"><g
         id="g3205"><g
           id="g3211"><g
             id="g3213"><path
               d="m 345.772,432.922 c -1.604,-7.407 -2.803,-12.794 -3.596,-16.164 l 0,0 c -0.973,-4.169 0.638,-7.561 4.829,-10.178 l 0,0 15.483,-9.514 0.008,-0.066 -1.586,-7.131 -14.153,0 1.183,5.316 -10.098,0 -3.428,-15.416 35.147,0 3.871,17.409 c 0.946,4.251 -0.315,7.44 -3.785,9.566 l 0,0 -16.541,10.164 1.329,5.98 14.219,0 -1.153,-5.182 10.098,0 3.399,15.282 -35.226,-0.066 z m 115.535,-15.136 3.578,0 -8.456,-38.017 13.904,0 1.957,8.801 -4.283,0 2.283,10.267 9.77,0 1.475,-19.068 9.977,0 -1.424,19.185 c -0.147,1.799 -1.056,3.344 -2.724,4.635 l 0,0 c 3.39,0.821 5.389,2.602 5.998,5.339 l 0,0 3.955,17.776 -34.014,0.059 -1.996,-8.977 z m 13.199,0 11.206,0 -2.401,-10.795 -11.206,0 2.401,10.795 z m -90.819,8.977 -3.039,-13.67 8.916,0 1.058,4.753 5.103,0 -6.486,-29.159 -3.989,0 -1.984,-8.918 17.6,0 1.985,8.918 -3.991,0 6.486,29.159 5.222,0 -1.056,-4.753 8.917,0 3.04,13.67 -37.782,0 z"
               id="path3221"
               style="fill:url(#linearGradient3215);stroke:none" /></g></g></g></g><g
       id="g3223"><g
         clip-path="url(#clipPath3227)"
         id="g3225"><g
           transform="translate(422.3066,402.5825)"
           id="g3231"><path
             d="m 0,0 -16.195,-29.147 26.449,17.897 0.942,0.626 L 27.299,-28.016 25.577,-1.511 53.838,15.184 24.889,15.211 23.522,41.307 8.76,15.11 l -24.454,0.215 2.131,-2.087 -0.383,-3.202 2.12,-0.143 11.589,-9.696 -0.24,-0.29 0.24,0.29 L 0,0 z"
             id="path3233"
             style="fill:#2a2523;fill-opacity:1;fill-rule:nonzero;stroke:none" /></g></g></g><g
       id="g3235"><g
         id="g3237"><g
           id="g3243"><g
             id="g3245"><path
               d="m 432.796,414.124 -20.771,0.169 14.467,-10.881 -11.406,-20.172 18.745,13.204 12.43,-13.562 -2.247,20.011 20.225,11.499 -20.297,-0.099 -0.75,18.84 -10.396,-19.009 z"
               id="path3253"
               style="fill:url(#linearGradient3247);stroke:none" /></g></g></g></g><g
       id="g3255"><g
         clip-path="url(#clipPath3259)"
         id="g3257"><g
           transform="translate(434.8105,401.7119)"
           id="g3263"><path
             d="M 0,0 -9.398,-7.263 -3.274,3.132 -10.796,8.697 -0.663,8.584 4.91,17.31 4.832,8.569 15.071,8.541 4.697,2.563 6.736,-8.396 0,0 z"
             id="path3265"
             style="fill:#ffffff;fill-opacity:1;fill-rule:nonzero;stroke:none" /></g><g
           transform="translate(204.25,414.1675)"
           id="g3267"><path
             d="M 0,0 -0.833,-3.167 -6.265,0.031 0,0 z"
             id="path3269"
             style="fill:#ffffff;fill-opacity:1;fill-rule:nonzero;stroke:none" /></g></g></g></g></svg>