<?xml version="1.0" encoding="utf-8"?>
<!-- Generator: Adobe Illustrator 17.1.0, SVG Export Plug-In . SVG Version: 6.00 Build 0)  -->
<!DOCTYPE svg PUBLIC "-//W3C//DTD SVG 1.1//EN" "http://www.w3.org/Graphics/SVG/1.1/DTD/svg11.dtd">
<svg version="1.1" id="Layer_1" xmlns="http://www.w3.org/2000/svg" xmlns:xlink="http://www.w3.org/1999/xlink" x="0px" y="0px"
	 viewBox="0 0 60 29.9" enable-background="new 0 0 60 29.9" xml:space="preserve">
<g>
	<polygon fill="none" stroke="#000000" stroke-width="3" stroke-miterlimit="10" points="30,5.2 33.1,2.4 34.7,5.6 39,3.3 39.1,6.5 
		44.3,4.9 42.8,8.1 48.7,7.3 45.7,10.1 51.8,10.1 47.5,12.4 53.3,13.3 48.1,14.9 53.3,16.6 47.5,17.4 51.8,19.8 45.7,19.8 
		48.7,22.6 42.8,21.8 44.3,24.9 39.1,23.3 39,26.6 34.7,24.3 33.1,27.4 30,24.6 26.9,27.4 25.3,24.3 21,26.6 21,23.3 15.7,24.9 
		17.2,21.8 11.3,22.6 14.3,19.8 8.3,19.8 12.5,17.4 6.7,16.6 11.9,14.9 6.7,13.3 12.5,12.4 8.3,10.1 14.3,10.1 11.3,7.3 17.2,8.1 
		15.7,4.9 21,6.5 21,3.3 25.3,5.6 26.9,2.4 	"/>
	<polygon fill="#FFFFFF" points="30,5.2 33.1,2.4 34.7,5.6 39,3.3 39.1,6.5 44.3,4.9 42.8,8.1 48.7,7.3 45.7,10.1 51.8,10.1 
		47.5,12.4 53.3,13.3 48.1,14.9 53.3,16.6 47.5,17.4 51.8,19.8 45.7,19.8 48.7,22.6 42.8,21.8 44.3,24.9 39.1,23.3 39,26.6 
		34.7,24.3 33.1,27.4 30,24.6 26.9,27.4 25.3,24.3 21,26.6 21,23.3 15.7,24.9 17.2,21.8 11.3,22.6 14.3,19.8 8.3,19.8 12.5,17.4 
		6.7,16.6 11.9,14.9 6.7,13.3 12.5,12.4 8.3,10.1 14.3,10.1 11.3,7.3 17.2,8.1 15.7,4.9 21,6.5 21,3.3 25.3,5.6 26.9,2.4 	"/>
	<polygon fill="none" stroke="#F7ED38" stroke-width="2" stroke-miterlimit="10" points="30,5.2 33.1,2.4 34.7,5.6 39,3.3 39.1,6.5 
		44.3,4.9 42.8,8.1 48.7,7.3 45.7,10.1 51.8,10.1 47.5,12.4 53.3,13.3 48.1,14.9 53.3,16.6 47.5,17.4 51.8,19.8 45.7,19.8 
		48.7,22.6 42.8,21.8 44.3,24.9 39.1,23.3 39,26.6 34.7,24.3 33.1,27.4 30,24.6 26.9,27.4 25.3,24.3 21,26.6 21,23.3 15.7,24.9 
		17.2,21.8 11.3,22.6 14.3,19.8 8.3,19.8 12.5,17.4 6.7,16.6 11.9,14.9 6.7,13.3 12.5,12.4 8.3,10.1 14.3,10.1 11.3,7.3 17.2,8.1 
		15.7,4.9 21,6.5 21,3.3 25.3,5.6 26.9,2.4 	"/>
</g>
</svg>
